# xmcd CD database file
#
# Track frame offsets:
#	150
#	14278
#	33046
#	51409
#	63147
#	77369
#	92943
#	107001
#	121632
#	143309
#	159316
#
# Disc length: 2393 seconds
#
# Revision: 0
# Processed by: cddbd v1.5.2PL0 Copyright (c) Steve Scherf et al.
# Submitted via: CDex 1.70beta2
#
DISCID=7309570b
DTITLE=Martin, Amber (10) - USA - Cty. - On-The-Go 2
DYEAR=2010
DGENRE=Country
TTITLE0=Oh Lonesome You
TTITLE1=Always On My Mind
TTITLE2=Til I Get It Right
TTITLE3=Once A Day
TTITLE4=You Don't Know Me
TTITLE5=Pass Me By
TTITLE6=Til I Can Make It On My Own
TTITLE7=On Down The Line
TTITLE8=Making Believe
TTITLE9=I'm Not Lisa
TTITLE10=How Great Thou Art
EXTD=YEAR: 2010
EXTT0=
EXTT1=
EXTT2=
EXTT3=
EXTT4=
EXTT5=
EXTT6=
EXTT7=
EXTT8=
EXTT9=
EXTT10=
PLAYORDER=
